# xmcd
#
# Track frame offsets:
#	150
#	5742
#	32037
#	54272
#	74199
#	92734
#	116664
#	137844
#	159172
#	180039
#	212987
#	240114
#
# Disc length: 3210 seconds
#
# Revision: 1
# Processed by: cddbd v1.5.1PL0 Copyright (c) Steve Scherf et al.
# Submitted via: audiograbber 1.83.01
#
DISCID=9a0c880c
DTITLE=Проект Нечетный Воин - Проект Нечетный Воин - CD1-
DYEAR=2005
DGENRE=Rock
TTITLE0=Интро - Интро
TTITLE1=Би2+ Д.Арбенина - Медленная звезда
TTITLE2=Brainstorm - Ты не один
TTITLE3=Серьга - Немного солнца
TTITLE4=Неонавт - Всё еще боюсь
TTITLE5=Би2 and И.Желанная - Небо без края
TTITLE6=Би2 and В.Sterry - Теперь ты знаешь
TTITLE7=Агата кристи - Уходим в море
TTITLE8=Линда - Звонок
TTITLE9=М.Карасёв - Солдат
TTITLE10=Сети - Возвращайся домой
TTITLE11=данные - данные
EXTD=
EXTT0=
EXTT1=
EXTT2=
EXTT3=
EXTT4=
EXTT5=
EXTT6=
EXTT7=
EXTT8=
EXTT9=
EXTT10=
EXTT11=
PLAYORDER=
